<mxfile host="65bd71144e">
    <diagram name="Power BI Fabric Architecture" id="powerbi-fabric-arch">
        <mxGraphModel dx="973" dy="916" grid="1" gridSize="10" guides="1" tooltips="1" connect="1" arrows="1" fold="1" page="1" pageScale="1" pageWidth="1169" pageHeight="827" math="0" shadow="0">
            <root>
                <mxCell id="0"/>
                <mxCell id="1" parent="0"/>
                <mxCell id="title" value="Power BI Fabric Deployment Pipeline Architecture" style="text;html=1;strokeColor=none;fillColor=none;align=center;verticalAlign=middle;whiteSpace=wrap;rounded=0;fontSize=18;fontStyle=1;" parent="1" vertex="1">
                    <mxGeometry x="80" y="20" width="770" height="30" as="geometry"/>
                </mxCell>
                <mxCell id="desktop" value="Power BI Desktop&lt;div&gt;.pbip&lt;/div&gt;" style="rounded=1;whiteSpace=wrap;html=1;fillColor=#dae8fc;strokeColor=#6c8ebf;fontSize=12;fontStyle=1;" parent="1" vertex="1">
                    <mxGeometry x="130" y="101" width="120" height="60" as="geometry"/>
                </mxCell>
                <mxCell id="feature-ws" value="Feature Workspaces" style="rounded=1;whiteSpace=wrap;html=1;fillColor=#fff2cc;strokeColor=#d6b656;fontSize=12;fontStyle=1;" parent="1" vertex="1">
                    <mxGeometry x="330" y="101" width="120" height="60" as="geometry"/>
                </mxCell>
                <mxCell id="git-container" value="" style="rounded=1;whiteSpace=wrap;html=1;fillColor=#f8cecc;strokeColor=#b85450;dashed=1;opacity=50;" parent="1" vertex="1">
                    <mxGeometry x="530" y="80" width="300" height="160" as="geometry"/>
                </mxCell>
                <mxCell id="git-label" value="Git Repository" style="text;html=1;strokeColor=none;fillColor=none;align=left;verticalAlign=top;whiteSpace=wrap;rounded=0;fontSize=14;fontStyle=1;" parent="1" vertex="1">
                    <mxGeometry x="700" y="90" width="100" height="20" as="geometry"/>
                </mxCell>
                <mxCell id="feature-branch" value="Feature Branch" style="rounded=1;whiteSpace=wrap;html=1;fillColor=#ffe6cc;strokeColor=#d79b00;fontSize=11;" parent="1" vertex="1">
                    <mxGeometry x="550" y="111" width="100" height="40" as="geometry"/>
                </mxCell>
                <mxCell id="main-branch" value="Main Branch" style="rounded=1;whiteSpace=wrap;html=1;fillColor=#e1d5e7;strokeColor=#9673a6;fontSize=11;" parent="1" vertex="1">
                    <mxGeometry x="550" y="180" width="100" height="40" as="geometry"/>
                </mxCell>
                <mxCell id="main-repo" value="Main Repository" style="rounded=1;whiteSpace=wrap;html=1;fillColor=#d5e8d4;strokeColor=#82b366;fontSize=11;" parent="1" vertex="1">
                    <mxGeometry x="712" y="180" width="100" height="40" as="geometry"/>
                </mxCell>
                <mxCell id="fabric-container" value="" style="rounded=1;whiteSpace=wrap;html=1;fillColor=#e6f3ff;strokeColor=#0066cc;dashed=1;opacity=50;" parent="1" vertex="1">
                    <mxGeometry x="50" y="301" width="600" height="200" as="geometry"/>
                </mxCell>
                <mxCell id="fabric-label" value="Fabric Deployment Pipelines" style="text;html=1;strokeColor=none;fillColor=none;align=left;verticalAlign=top;whiteSpace=wrap;rounded=0;fontSize=14;fontStyle=1;" parent="1" vertex="1">
                    <mxGeometry x="430" y="311" width="200" height="20" as="geometry"/>
                </mxCell>
                <mxCell id="dev-ws" value="DEV Workspace" style="rounded=1;whiteSpace=wrap;html=1;fillColor=#d5e8d4;strokeColor=#82b366;fontSize=12;fontStyle=1;" parent="1" vertex="1">
                    <mxGeometry x="90" y="361" width="120" height="60" as="geometry"/>
                </mxCell>
                <mxCell id="uat-ws" value="UAT Workspace" style="rounded=1;whiteSpace=wrap;html=1;fillColor=#fff2cc;strokeColor=#d6b656;fontSize=12;fontStyle=1;" parent="1" vertex="1">
                    <mxGeometry x="290" y="361" width="120" height="60" as="geometry"/>
                </mxCell>
                <mxCell id="prod-ws" value="PROD Workspace" style="rounded=1;whiteSpace=wrap;html=1;fillColor=#f8cecc;strokeColor=#b85450;fontSize=12;fontStyle=1;" parent="1" vertex="1">
                    <mxGeometry x="490" y="361" width="120" height="60" as="geometry"/>
                </mxCell>
                <mxCell id="arrow1" value="" style="endArrow=classic;startArrow=classic;html=1;rounded=0;entryX=0;entryY=0.5;entryDx=0;entryDy=0;exitX=1;exitY=0.5;exitDx=0;exitDy=0;" parent="1" source="desktop" target="feature-ws" edge="1">
                    <mxGeometry width="50" height="50" relative="1" as="geometry">
                        <mxPoint x="260" y="140" as="sourcePoint"/>
                        <mxPoint x="320" y="140" as="targetPoint"/>
                    </mxGeometry>
                </mxCell>
                <mxCell id="arrow1-label" value="Pull/Push" style="text;html=1;strokeColor=none;fillColor=none;align=center;verticalAlign=middle;whiteSpace=wrap;rounded=0;fontSize=10;" parent="1" vertex="1">
                    <mxGeometry x="265" y="111" width="50" height="20" as="geometry"/>
                </mxCell>
                <mxCell id="arrow2" value="" style="endArrow=classic;startArrow=classic;html=1;rounded=0;entryX=0;entryY=0.5;entryDx=0;entryDy=0;exitX=1;exitY=0.5;exitDx=0;exitDy=0;" parent="1" source="feature-ws" target="feature-branch" edge="1">
                    <mxGeometry width="50" height="50" relative="1" as="geometry">
                        <mxPoint x="460" y="121" as="sourcePoint"/>
                        <mxPoint x="540" y="131" as="targetPoint"/>
                    </mxGeometry>
                </mxCell>
                <mxCell id="arrow2-label" value="Sync" style="text;html=1;strokeColor=none;fillColor=none;align=center;verticalAlign=middle;whiteSpace=wrap;rounded=0;fontSize=10;" parent="1" vertex="1">
                    <mxGeometry x="477" y="111" width="30" height="20" as="geometry"/>
                </mxCell>
                <mxCell id="arrow3" value="" style="endArrow=classic;html=1;rounded=0;entryX=0.5;entryY=0;entryDx=0;entryDy=0;exitX=0.5;exitY=1;exitDx=0;exitDy=0;" parent="1" source="feature-branch" target="main-branch" edge="1">
                    <mxGeometry width="50" height="50" relative="1" as="geometry">
                        <mxPoint x="600" y="170" as="sourcePoint"/>
                        <mxPoint x="600" y="180" as="targetPoint"/>
                    </mxGeometry>
                </mxCell>
                <mxCell id="arrow3-label" value="Merge via PR" style="text;html=1;strokeColor=none;fillColor=none;align=center;verticalAlign=middle;whiteSpace=wrap;rounded=0;fontSize=10;" parent="1" vertex="1">
                    <mxGeometry x="606" y="155" width="70" height="20" as="geometry"/>
                </mxCell>
                <mxCell id="arrow4" value="" style="endArrow=classic;startArrow=classic;html=1;rounded=0;entryX=0;entryY=0.5;entryDx=0;entryDy=0;exitX=1;exitY=0.5;exitDx=0;exitDy=0;" parent="1" source="main-branch" target="main-repo" edge="1">
                    <mxGeometry width="50" height="50" relative="1" as="geometry">
                        <mxPoint x="660" y="200" as="sourcePoint"/>
                        <mxPoint x="680" y="170" as="targetPoint"/>
                    </mxGeometry>
                </mxCell>
                <mxCell id="arrow4-label" value="Branch" style="text;html=1;strokeColor=none;fillColor=none;align=center;verticalAlign=middle;whiteSpace=wrap;rounded=0;fontSize=10;" parent="1" vertex="1">
                    <mxGeometry x="662" y="197" width="40" height="20" as="geometry"/>
                </mxCell>
                <mxCell id="arrow5" value="" style="endArrow=classic;startArrow=classic;html=1;rounded=0;entryX=0.5;entryY=0;entryDx=0;entryDy=0;exitX=0.25;exitY=1;exitDx=0;exitDy=0;" parent="1" source="main-branch" target="dev-ws" edge="1">
                    <mxGeometry width="50" height="50" relative="1" as="geometry">
                        <mxPoint x="495" y="230" as="sourcePoint"/>
                        <mxPoint x="200" y="350" as="targetPoint"/>
                        <Array as="points">
                            <mxPoint x="575" y="270"/>
                            <mxPoint x="150" y="270"/>
                        </Array>
                    </mxGeometry>
                </mxCell>
                <mxCell id="arrow5-label" value="Sync/Update" style="text;html=1;strokeColor=none;fillColor=none;align=center;verticalAlign=middle;whiteSpace=wrap;rounded=0;fontSize=10;" parent="1" vertex="1">
                    <mxGeometry x="270" y="271" width="70" height="20" as="geometry"/>
                </mxCell>
                <mxCell id="arrow6" value="" style="endArrow=classic;html=1;rounded=0;entryX=0;entryY=0.5;entryDx=0;entryDy=0;exitX=1;exitY=0.5;exitDx=0;exitDy=0;" parent="1" source="dev-ws" target="uat-ws" edge="1">
                    <mxGeometry width="50" height="50" relative="1" as="geometry">
                        <mxPoint x="220" y="391" as="sourcePoint"/>
                        <mxPoint x="280" y="391" as="targetPoint"/>
                    </mxGeometry>
                </mxCell>
                <mxCell id="arrow6-label" value="Deploy" style="text;html=1;strokeColor=none;fillColor=none;align=center;verticalAlign=middle;whiteSpace=wrap;rounded=0;fontSize=10;" parent="1" vertex="1">
                    <mxGeometry x="230" y="371" width="40" height="20" as="geometry"/>
                </mxCell>
                <mxCell id="arrow7" value="" style="endArrow=classic;html=1;rounded=0;entryX=0;entryY=0.5;entryDx=0;entryDy=0;exitX=1;exitY=0.5;exitDx=0;exitDy=0;" parent="1" source="uat-ws" target="prod-ws" edge="1">
                    <mxGeometry width="50" height="50" relative="1" as="geometry">
                        <mxPoint x="420" y="391" as="sourcePoint"/>
                        <mxPoint x="480" y="391" as="targetPoint"/>
                    </mxGeometry>
                </mxCell>
                <mxCell id="arrow7-label" value="Deploy with&#xa;Approval" style="text;html=1;strokeColor=none;fillColor=none;align=center;verticalAlign=middle;whiteSpace=wrap;rounded=0;fontSize=10;" parent="1" vertex="1">
                    <mxGeometry x="420" y="360" width="60" height="30" as="geometry"/>
                </mxCell>
                <mxCell id="legend-container" value="" style="rounded=1;whiteSpace=wrap;html=1;fillColor=#f5f5f5;strokeColor=#666666;dashed=1;" parent="1" vertex="1">
                    <mxGeometry x="680" y="316" width="220" height="150" as="geometry"/>
                </mxCell>
                <mxCell id="legend-title" value="Legend" style="text;html=1;strokeColor=none;fillColor=none;align=center;verticalAlign=middle;whiteSpace=wrap;rounded=0;fontSize=14;fontStyle=1;" parent="1" vertex="1">
                    <mxGeometry x="760" y="326" width="60" height="20" as="geometry"/>
                </mxCell>
                <mxCell id="legend1" value="Development Tools" style="rounded=1;whiteSpace=wrap;html=1;fillColor=#dae8fc;strokeColor=#6c8ebf;fontSize=10;" parent="1" vertex="1">
                    <mxGeometry x="700" y="356" width="80" height="20" as="geometry"/>
                </mxCell>
                <mxCell id="legend2" value="Workspaces" style="rounded=1;whiteSpace=wrap;html=1;fillColor=#fff2cc;strokeColor=#d6b656;fontSize=10;" parent="1" vertex="1">
                    <mxGeometry x="800" y="356" width="80" height="20" as="geometry"/>
                </mxCell>
                <mxCell id="legend3" value="Git Branches" style="rounded=1;whiteSpace=wrap;html=1;fillColor=#ffe6cc;strokeColor=#d79b00;fontSize=10;" parent="1" vertex="1">
                    <mxGeometry x="700" y="386" width="80" height="20" as="geometry"/>
                </mxCell>
                <mxCell id="legend4" value="Repository" style="rounded=1;whiteSpace=wrap;html=1;fillColor=#d5e8d4;strokeColor=#82b366;fontSize=10;" parent="1" vertex="1">
                    <mxGeometry x="800" y="386" width="80" height="20" as="geometry"/>
                </mxCell>
                <mxCell id="legend5" value="Production" style="rounded=1;whiteSpace=wrap;html=1;fillColor=#f8cecc;strokeColor=#b85450;fontSize=10;" parent="1" vertex="1">
                    <mxGeometry x="700" y="416" width="80" height="20" as="geometry"/>
                </mxCell>
                <mxCell id="legend6" value="Deployment Flow" style="rounded=1;whiteSpace=wrap;html=1;fillColor=#e6f3ff;strokeColor=#0066cc;fontSize=10;" parent="1" vertex="1">
                    <mxGeometry x="800" y="416" width="80" height="20" as="geometry"/>
                </mxCell>
                <mxCell id="flow1" value="1" style="ellipse;whiteSpace=wrap;html=1;aspect=fixed;fillColor=#ff6666;strokeColor=#ffffff;fontColor=#ffffff;fontSize=12;fontStyle=1;" parent="1" vertex="1">
                    <mxGeometry x="280" y="95" width="20" height="20" as="geometry"/>
                </mxCell>
                <mxCell id="flow2" value="2" style="ellipse;whiteSpace=wrap;html=1;aspect=fixed;fillColor=#ff6666;strokeColor=#ffffff;fontColor=#ffffff;fontSize=12;fontStyle=1;" parent="1" vertex="1">
                    <mxGeometry x="571" y="155" width="20" height="20" as="geometry"/>
                </mxCell>
                <mxCell id="flow3" value="3" style="ellipse;whiteSpace=wrap;html=1;aspect=fixed;fillColor=#ff6666;strokeColor=#ffffff;fontColor=#ffffff;fontSize=12;fontStyle=1;" parent="1" vertex="1">
                    <mxGeometry x="290" y="249" width="20" height="20" as="geometry"/>
                </mxCell>
                <mxCell id="flow4" value="4" style="ellipse;whiteSpace=wrap;html=1;aspect=fixed;fillColor=#ff6666;strokeColor=#ffffff;fontColor=#ffffff;fontSize=12;fontStyle=1;" parent="1" vertex="1">
                    <mxGeometry x="409" y="314" width="20" height="20" as="geometry"/>
                </mxCell>
            </root>
        </mxGraphModel>
    </diagram>
</mxfile>